<svg id="图层_1" data-name="图层 1" xmlns="http://www.w3.org/2000/svg" viewBox="0 0 644.55 371.29"><defs><style>.cls-1{fill:#fbb03b;}</style></defs><title>cat1</title><path class="cls-1" d="M833.73,366c-10.75,4.52-21.35,9.39-31.64,14.87a229,229,0,0,0-24.45,14.88,134.75,134.75,0,0,0-18,14.88,79,79,0,0,0-11.84,14.81,49.78,49.78,0,0,0-6,14.46A40.07,40.07,0,0,0,741,454a44.35,44.35,0,0,0,4.18,13.72,60.28,60.28,0,0,0,8.5,12.71,90.29,90.29,0,0,0,12.23,11.71,139.45,139.45,0,0,0,15.88,10.95,196.82,196.82,0,0,0,18.62,9.7c6.95,3.18,14.07,6,21.28,8.6q11.41,4,23.14,7.22,12.25,3.33,24.72,5.79,12.92,2.57,26,4.27T922,541.21q13.32.85,26.66.8c8.84,0,17.68-.41,26.49-1.13,8.64-.71,17.25-1.75,25.79-3.19,8.22-1.37,16.38-3.12,24.42-5.3a203.47,203.47,0,0,0,22.74-7.59,164.91,164.91,0,0,0,20.78-10,131.43,131.43,0,0,0,18.17-12.61,107.29,107.29,0,0,0,15-15.18,112.17,112.17,0,0,0,12.06-18.63,67.33,67.33,0,0,0,7-20.69,53.44,53.44,0,0,0-.52-19.49,57.79,57.79,0,0,0-7.21-17.66,81,81,0,0,0-12.94-15.95,124,124,0,0,0-17.75-14.14,182,182,0,0,0-21.5-12.19,253.23,253.23,0,0,0-24.71-10.35c-8.7-3.14-17.56-5.86-26.51-8.21q-13.67-3.62-27.62-6.1t-28-3.92c-9-.91-18-1.47-27.07-1.62-8.47-.14-17,.07-25.39.76A185.15,185.15,0,0,0,879,342.05a110.44,110.44,0,0,0-19.27,5.78,63.44,63.44,0,0,0-15.25,8.63A36.51,36.51,0,0,0,835,367.3c-.93,1.69,1.66,3.21,2.59,1.52A34.44,34.44,0,0,1,847,358.29a63.08,63.08,0,0,1,14.72-8A114.92,114.92,0,0,1,881,344.68a182.88,182.88,0,0,1,22.47-3c8.41-.63,16.85-.8,25.28-.62,8.94.18,17.86.77,26.75,1.69q13.79,1.42,27.42,3.94t27.23,6.1c8.85,2.35,17.61,5.07,26.22,8.19a245,245,0,0,1,23.94,10.1,180.31,180.31,0,0,1,21.24,12.11,119,119,0,0,1,17.16,13.76,77.53,77.53,0,0,1,12.46,15.52,54.13,54.13,0,0,1,6.76,17.07,50.79,50.79,0,0,1,.21,18.48,66.92,66.92,0,0,1-7.27,20.16A109.81,109.81,0,0,1,1099,486a107.5,107.5,0,0,1-15,14.74,128.11,128.11,0,0,1-17.88,12.1,160.35,160.35,0,0,1-20.31,9.62,206.45,206.45,0,0,1-22.65,7.38c-8,2.11-16,3.79-24.16,5.12-8.38,1.37-16.82,2.35-25.28,3q-13,1-26,1-13.22,0-26.42-.84t-26.1-2.59q-12.78-1.68-25.42-4.23-12.27-2.45-24.36-5.73c-7.73-2.11-15.38-4.48-22.93-7.17-7-2.49-13.9-5.24-20.65-8.33a195.74,195.74,0,0,1-18.45-9.62A137.82,137.82,0,0,1,768.12,490,91.23,91.23,0,0,1,756,478.44a57.47,57.47,0,0,1-8.11-12.15,39.44,39.44,0,0,1-2.47-6.23c-.33-1.09-.62-2.18-.85-3.29-.12-.55-.23-1.09-.32-1.63-.05-.27-.09-.53-.13-.79-.08-.54,0-.27-.09-.64a38.47,38.47,0,0,1-.22-6.7c0-.59.08-1.17.14-1.75.07-.74.1-.94.17-1.41.18-1.17.4-2.32.67-3.47a46.22,46.22,0,0,1,6-13.88,76.28,76.28,0,0,1,11.55-14.21A134.63,134.63,0,0,1,780,397.73a232,232,0,0,1,24.36-14.67c9.82-5.2,19.91-9.86,30.15-14.17,1.76-.73,1-3.64-.79-2.89Z" transform="translate(-710.21 -335.76)"/><path class="cls-1" d="M836.55,429.12c8.25-4.68,16.57-9.26,25.48-12.59a65.55,65.55,0,0,1,16-4.12c4.83-.51,10-.3,14.43,1.85,5.62,2.72,9,8,10.76,13.8.57,1.84,3.47,1.06,2.9-.79-1.76-5.7-4.85-11-9.92-14.34-4.41-2.9-9.8-3.87-15-3.73-11.56.31-22.85,5.1-33,10.21-4.45,2.22-8.78,4.66-13.1,7.12a1.5,1.5,0,0,0,1.51,2.59Z" transform="translate(-710.21 -335.76)"/><path class="cls-1" d="M814,437c-2.49,7.66-2.43,15.85,1,23.19,3.33,7,9.39,12.49,16,16.38A70.08,70.08,0,0,0,855.68,485a80.8,80.8,0,0,0,27.53-.39A55.94,55.94,0,0,0,907,474.32c.82-.64,1.62-1.3,2.39-2,1.45-1.29-.68-3.4-2.12-2.12-6.12,5.48-13.8,8.92-21.74,10.84a75.35,75.35,0,0,1-25.84,1.5,70.43,70.43,0,0,1-24.11-6.89c-6.51-3.3-12.63-7.9-16.49-14.2a27.11,27.11,0,0,1-3.1-20.59c.25-1,.54-2,.86-3.05.6-1.84-2.3-2.63-2.89-.79Z" transform="translate(-710.21 -335.76)"/><path class="cls-1" d="M862.85,445.35c-3.22,1.63-5,4.68-3.36,8.13s5.66,6.14,9,8.07a66.62,66.62,0,0,0,15.29,6.34A51.06,51.06,0,0,0,900,470.12c4.34-.21,9.17-1.3,12.13-4.74a11.39,11.39,0,0,0,2.56-5.43,7.16,7.16,0,0,0-1.09-4.67c-2.26-4.13-6-7.54-9.66-10.45a67.21,67.21,0,0,0-15.57-9.58c-5.17-2.22-10.93-3.91-16.61-3.18a16,16,0,0,0-12.52,9,27.27,27.27,0,0,0-1.77,4.68,1.5,1.5,0,0,0,2.89.8c1.35-4.82,4.15-9.31,9.06-10.9,4.59-1.48,9.66-.54,14.18,1a58.53,58.53,0,0,1,14.94,7.87,51.54,51.54,0,0,1,10.83,9.86,22.69,22.69,0,0,1,1.41,2.06c.19.32.35.63.52.95l.12.27c.1.22-.13-.33,0,0l.18.5c.06.19.19,1,.15.53,0,.21,0,.92,0,.42a11.69,11.69,0,0,1-.65,2.31,8,8,0,0,1-3,3.53,13.63,13.63,0,0,1-5.31,1.91c-4.44.79-9.5.2-14-.77a67.63,67.63,0,0,1-14.79-5c-3.79-1.8-7.6-3.89-10.39-6.91a6.52,6.52,0,0,1-1.22-1.61l-.21-.39c-.14-.24-.14-.3-.08-.16a5.69,5.69,0,0,1-.27-.89c-.09-.41,0,.24,0-.11v-.4c0-.4-.06.19,0,0s.08-.31.13-.47c.08-.32-.16.25,0-.11.06-.11.12-.22.19-.33.2-.36.05-.1.12-.18l.37-.39a2.05,2.05,0,0,1,.63-.5c.35-.22.71-.43,1.08-.62,1.72-.86.21-3.45-1.51-2.59Z" transform="translate(-710.21 -335.76)"/><path class="cls-1" d="M936.05,428.33a31.61,31.61,0,0,1,20.29-19c10-3.14,20.92-2.06,30.68,1.44a63.66,63.66,0,0,1,17.21,9.55,1.51,1.51,0,0,0,2.06-.54,1.54,1.54,0,0,0-.54-2,62.61,62.61,0,0,0-33.19-13.12c-10.4-.76-21.19,1.72-29.33,8.46a34.52,34.52,0,0,0-10.07,14.47c-.69,1.81,2.21,2.59,2.89.8Z" transform="translate(-710.21 -335.76)"/><path class="cls-1" d="M926.33,466.39c.45,8.51,8,14.06,15.14,17.29,10.23,4.63,21.72,6.4,32.87,6.85a108.88,108.88,0,0,0,36.26-4.29c9.85-3.05,20-8.13,25.8-17,6.26-9.5,4.92-21,.52-31-.72-1.63-1.52-3.22-2.38-4.78s-3.52-.18-2.59,1.51c2.87,5.24,5.22,11.13,5.71,17a27.24,27.24,0,0,1-.27,6.93,23.72,23.72,0,0,1-2.07,6.24c-4.32,8.59-13.27,13.87-22.17,17.08-11,4-22.79,5.45-34.41,5.4-11,0-22.1-1.37-32.44-5.18a44.56,44.56,0,0,1-6.15-2.75,33,33,0,0,1-5-3.27,22.36,22.36,0,0,1-2-1.87,14.87,14.87,0,0,1-1.49-1.8,16.18,16.18,0,0,1-1.31-2.24c0-.09-.27-.63-.11-.25-.07-.16-.14-.34-.2-.51-.15-.41-.28-.83-.39-1.25s-.17-.79-.24-1.18,0,.25,0,0l0-.27c0-.22,0-.45,0-.67-.1-1.92-3.1-1.93-3,0Z" transform="translate(-710.21 -335.76)"/><path class="cls-1" d="M939.86,453.62a119.56,119.56,0,0,1,22.27-7.87,61.42,61.42,0,0,1,17-1.87c1.17.05,2.34.15,3.5.28l.23,0h-.1l.41.06.8.13c.54.09,1.07.2,1.6.31q1.44.33,2.85.78c.45.15.9.32,1.35.49l.44.18.17.07.34.16a21.17,21.17,0,0,1,2.2,1.18c.33.2.66.42,1,.65l.46.34c-.38-.29.11.09.23.19a13.65,13.65,0,0,1,1.56,1.48l.34.39c.07.08.38.48.22.27l.2.28.3.44a13.68,13.68,0,0,1,.9,1.69c-.19-.41,0,0,.05.14s.11.29.16.44.17.58.24.88c0,.15.07.3.1.45s.1.61,0,.31,0,.16,0,.26,0,.32,0,.48a6.91,6.91,0,0,1,0,.91c0,.16,0,.31,0,.46s-.11.73,0,.15a13.72,13.72,0,0,1-.41,1.82c-.1.31-.22.6-.33.9s.16-.34,0-.07a2.29,2.29,0,0,1-.1.23l-.21.44a14.42,14.42,0,0,1-1.08,1.77c-.11.14-.39.5-.11.15l-.36.45c-.24.28-.48.55-.74.82a20.12,20.12,0,0,1-1.75,1.58c-.35.29.12-.07-.21.17l-.54.39c-.35.24-.7.48-1.06.7a24.54,24.54,0,0,1-2.42,1.31l-.6.28-.33.14-.12.05c-.46.19-.92.37-1.39.54a37.91,37.91,0,0,1-6.45,1.65l-.89.14-.39.05c-.29,0-.05,0,0,0l-.26,0c-.65.07-1.3.15-2,.2-1.33.12-2.67.18-4,.2a79.3,79.3,0,0,1-19.29-2.31A141.74,141.74,0,0,1,929.1,461c-2.3-1-4.59-2.07-6.85-3.17-1.73-.84-3.25,1.74-1.52,2.59a165.19,165.19,0,0,0,26.93,10.52,95.15,95.15,0,0,0,21.5,3.73,52.63,52.63,0,0,0,16.06-1.5,28.59,28.59,0,0,0,10.87-5.35,16.09,16.09,0,0,0,5.23-7.57,12.21,12.21,0,0,0-.55-8.42,15.64,15.64,0,0,0-6.18-6.78A28.73,28.73,0,0,0,983,441.2a55.84,55.84,0,0,0-16.62.64,104.06,104.06,0,0,0-21.71,6.46q-3.18,1.31-6.29,2.73a1.51,1.51,0,0,0-.54,2.05,1.53,1.53,0,0,0,2.05.54Z" transform="translate(-710.21 -335.76)"/><path class="cls-1" d="M908.29,496a7.45,7.45,0,0,0-9.6,3.16,1.53,1.53,0,0,0,.24,1.82c2.67,2.28,6.15,2.77,9.1.69a12.55,12.55,0,0,0,4.9-7.33c.56-2.55-.22-5.67-3.38-5.59a10,10,0,0,0-5,2c-.5.33-1,.67-1.46,1a2.34,2.34,0,0,0-.85,1.77,12.3,12.3,0,0,0-.13,2.5,8.61,8.61,0,0,0,4.06,6.86,15.9,15.9,0,0,0,8.11,2,27.44,27.44,0,0,0,8.76-1.29,15.74,15.74,0,0,0,6.64-3.69,4.88,4.88,0,0,0,1-6c-1.62-2.75-5.18-4.11-8-5.09-1.17-.41-2.36-.75-3.56-1.07a1.5,1.5,0,0,0-.8,2.89,31.81,31.81,0,0,1,7,2.55c.37.2.74.41,1.09.64l.47.33c.3.21-.24-.21,0,0l.24.19c.25.22.46.45.69.69s-.09-.2.09.12l.22.36c0,.05.05.11.09.17.14.23-.11-.36,0-.1a1.7,1.7,0,0,0,.1.32c.05.16,0,.52,0,0,0,.13,0,.26,0,.39s-.12.48,0,0c0,.1,0,.21-.07.31a2.83,2.83,0,0,1-.11.31c.15-.5,0-.07,0,.07s-.52.74-.2.35a6.36,6.36,0,0,1-.61.66l-.31.28c-.09.08-.53.4-.14.12-.27.2-.54.39-.83.57a16.63,16.63,0,0,1-1.87,1l-.29.13s.31-.13.06,0l-.51.21c-.39.14-.78.28-1.17.4-.82.26-1.65.48-2.5.66-.39.09-.78.16-1.18.23l-.6.09c-.39.06.23,0,0,0l-.42.05a23.14,23.14,0,0,1-5.06.05l-.29,0c-.39,0,.34.05,0,0a5.43,5.43,0,0,1-.56-.09,12,12,0,0,1-1.19-.26c-.34-.09-.69-.19-1-.31l-.49-.19c-.34-.13.3.14,0,0l-.28-.13a9.62,9.62,0,0,1-1-.59c-.1-.06-.6-.45-.25-.17-.15-.12-.3-.24-.44-.37s-.28-.27-.41-.41-.46-.58-.19-.21a9.06,9.06,0,0,1-.61-1s0-.12-.08-.17c-.12-.23.09.3,0-.11a5.62,5.62,0,0,1-.19-.58,6.21,6.21,0,0,1-.14-.62,1.55,1.55,0,0,1,0-.21c0-.25,0,.29,0-.15a13.64,13.64,0,0,1,0-1.43,6,6,0,0,1,.18-1.32l-.69.9a20.62,20.62,0,0,1,3.45-2.17,4.93,4.93,0,0,1,1.06-.37c.12,0,.68-.08.2-.05l.53,0c.2,0-.17-.14-.09,0s.18,0,.21,0-.34-.21,0,0-.26-.25,0,0-.2-.31,0,.06,0-.23,0,.08a2.21,2.21,0,0,0,.08.37c.08.27,0-.33,0-.13s0,.13,0,.2,0,.34,0,.52a2.45,2.45,0,0,1,0,.27c0,.33.07-.37,0,0l-.09.48a10.68,10.68,0,0,1-.33,1.1l-.12.3c-.14.36.14-.29,0,.06-.08.17-.16.34-.25.51a12.17,12.17,0,0,1-.63,1.11,7.82,7.82,0,0,1-3.32,3c-.33.16.31-.1,0,0l-.31.1a5.06,5.06,0,0,1-.75.17c.41-.07-.22,0-.36,0s-.79-.08-.38,0a4.63,4.63,0,0,1-2.46-1.18l.23,1.82a4.42,4.42,0,0,1,5.5-2.09,1.55,1.55,0,0,0,2.05-.54,1.52,1.52,0,0,0-.54-2Z" transform="translate(-710.21 -335.76)"/><path class="cls-1" d="M887.67,531.83h90.66a1.5,1.5,0,0,0,0-3H887.67a1.5,1.5,0,0,0,0,3Z" transform="translate(-710.21 -335.76)"/><path class="cls-1" d="M785.51,384.55A24.66,24.66,0,0,0,773,366.7c-6.41-3.56-14.09-4.67-21.33-4-6.76.62-13.71,2.67-19,7-4.65,3.82-7,9.63-5.21,15.53a24.83,24.83,0,0,0,6.16,9.63,64.61,64.61,0,0,0,13.71,10.32c1.55.91,3.11,1.78,4.7,2.62s3.22-1.68,1.51-2.59a79.6,79.6,0,0,1-15-9.86,29,29,0,0,1-7.38-8.93,14,14,0,0,1-1.25-4s0,0,0-.22,0-.32,0-.48a8.47,8.47,0,0,1,0-1,6.56,6.56,0,0,1,.17-1.61,11.59,11.59,0,0,1,3.44-6.07c4.16-4.16,10.32-6.27,16.3-7.17a36.59,36.59,0,0,1,19.55,2.25A21.86,21.86,0,0,1,782,382.47c.25.95.45,1.91.61,2.87.3,1.9,3.19,1.1,2.89-.79Z" transform="translate(-710.21 -335.76)"/><path class="cls-1" d="M757.85,404.47c-.21-1.51-.58-3-.87-4.48-.22-1.13-.43-2.26-.61-3.39-.23-1.4-.33-2.06-.47-3.45-.12-1.21-.2-2.43-.2-3.65,0-.57,0-1.15,0-1.73,0-.24,0-.48.07-.72s0,.23,0-.12c0-.13,0-.26.07-.39a10.64,10.64,0,0,1,.37-1.37c.13-.42-.09.1.11-.27l.32-.54c.17-.28-.16.16,0,0l.17-.19.18-.17c.23-.25-.14.06,0,0s.28-.17.43-.24c-.42.21.13,0,.3-.06s-.32,0,.05,0h.34l.36,0c.18,0-.22-.07.14,0s.6.14.89.23l.45.16a2.13,2.13,0,0,1,.32.13,24.41,24.41,0,0,1,4.88,3.16,1.54,1.54,0,0,0,2.12,0,1.5,1.5,0,0,0,0-2.12c-2.53-2-5.61-4.44-9-4.6a5,5,0,0,0-4.91,3.57,17.21,17.21,0,0,0-.68,7.1,67.17,67.17,0,0,0,1.07,8.11c.35,1.94.86,3.87,1.12,5.82a1.5,1.5,0,0,0,1.85,1.05,1.55,1.55,0,0,0,1.05-1.84Z" transform="translate(-710.21 -335.76)"/><path class="cls-1" d="M1088.61,382a36.93,36.93,0,0,1,9.79-5.07,73.06,73.06,0,0,1,13-3.21,97.18,97.18,0,0,1,27.93-.34,61.5,61.5,0,0,1,12,2.76,26,26,0,0,1,8.32,4.49,14.57,14.57,0,0,1,1.45,1.49,2.43,2.43,0,0,1,.4.53,9.71,9.71,0,0,1,.54.87c.14.26.27.53.39.8-.15-.35,0,.06,0,.16l.18.52c.08.28.14.57.2.86,0,.13.07.49,0,.15,0,.18,0,.37,0,.56s0,.61,0,.91,0,.32,0,.47c0,.44,0-.12,0,.32a13.06,13.06,0,0,1-.57,2.1,19,19,0,0,1-2.45,4.26c-3,4-7.26,7.37-11.41,10.27a162.07,162.07,0,0,1-21.29,12.23c-2.33,1.15-4.69,2.26-7.05,3.35-1.75.81-.23,3.4,1.51,2.59a201.9,201.9,0,0,0,24.77-13.19,67.58,67.58,0,0,0,14.12-11.36c2.44-2.73,4.73-6,5.3-9.7a10.79,10.79,0,0,0-2.31-8.5,20.5,20.5,0,0,0-7.84-5.67,52,52,0,0,0-11.84-3.57,97.59,97.59,0,0,0-29.25-.79c-8.79,1.05-18.08,3-25.64,7.87-.83.53-1.63,1.11-2.41,1.71a1.51,1.51,0,0,0,0,2.13,1.55,1.55,0,0,0,2.12,0Z" transform="translate(-710.21 -335.76)"/><path class="cls-1" d="M1102.49,394.29a1.46,1.46,0,0,1-.67,1.21l.11-.06c.32-.2-.44.13,0,0l1.09-.34c1.21-.33,2.44-.59,3.67-.83.76-.15,1.53-.28,2.3-.4l1.29-.2.61-.09.46-.05c1.78-.23,3.58-.39,5.37-.45a36.31,36.31,0,0,1,5.11.14l.33,0c-.38-.05-.12,0,0,0l.53.08c.38.07.77.15,1.15.25a7.84,7.84,0,0,1,.91.27l.43.15c.3.12-.33-.15,0,0l.23.11c.25.13.48.27.71.41.4.22-.08-.11.1.06l.33.3c.1.1.37.48.07.06a3,3,0,0,1,.2.29c.07.1.11.21.17.31-.24-.44,0,0,0,.12s0,.24.08.36,0-.36,0,.06c0,.13,0,.27,0,.41,0,.49.07-.19,0,.2a8.48,8.48,0,0,1-.26,1c0,.09-.27.67-.11.3-.1.22-.2.43-.31.65a25.62,25.62,0,0,1-5,6.31,104.45,104.45,0,0,1-10.61,9.09,1.55,1.55,0,0,0-.53,2.05,1.51,1.51,0,0,0,2,.54,117.91,117.91,0,0,0,10.55-8.9,35.13,35.13,0,0,0,5.62-6.67c1.77-2.91,2.54-6.66-.58-8.94-2.65-2-6.51-2.08-9.67-2.06a66.61,66.61,0,0,0-11.53,1.19c-1.5.27-3,.58-4.47,1-1.19.33-2.49.64-2.68,2.07a1.5,1.5,0,0,0,3,0Z" transform="translate(-710.21 -335.76)"/><path class="cls-1" d="M812.33,524.79c9.48,11.48,23,29.53,13.8,44.85-3.46,5.74-9.07,10-14.61,13.53-6.7,4.35-13.83,8-20.85,11.79a229.3,229.3,0,0,0-23.06,13.77q-2.39,1.68-4.7,3.47c-.74.58-2,1.21-2.28,2.17a6.4,6.4,0,0,0,.3,2.66,76.7,76.7,0,0,0,2.36,9.82A75.47,75.47,0,0,0,783.57,659c20.56,19.44,49.45,27.92,77,31,31.31,3.54,63.64.43,93.92-8.18,26.92-7.65,54.55-20.13,73.79-41.07a88.93,88.93,0,0,0,5.82-7l-2.35.31c24.72,29,56.53,57,94.79,65.35,23.24,5,49.2,1.36,66.38-16.28a59,59,0,0,0,15.76-32l-2.2.9c20.17,15.49,43.19,30.86,68.57,36,13.7,2.75,28.92,1.91,40-7.55,9.07-7.77,13.14-19.82,13.26-31.5a58.39,58.39,0,0,0-11.75-35.45,51.31,51.31,0,0,0-34.5-20q-2.85-.36-5.71-.43c-2-.06-1.91,2.86,0,3,15,1,30.31,1.52,45.2-.9,8-1.29,17-3.51,23-9.31,10.44-10.06,2.53-24.53-4.92-33.67-12.15-14.9-28.87-26.39-45.56-35.6-16-8.8-34.16-17-52.61-18-6.31-.36-13.31.26-18.69,3.91s-7.8,9.71-8.14,16a38.07,38.07,0,0,0,.17,5.75l2.94-.4c-2.54-15.69-20.67-23.1-34-27.26-19.42-6.08-40-8.43-60.26-10-9.25-.73-18.51-1.2-27.78-1.62-1.93-.08-1.92,2.92,0,3,17.42.79,34.85,1.81,52.14,4.18a236.06,236.06,0,0,1,29.46,5.71c8.32,2.24,16.67,5.07,24.06,9.59,6.44,3.93,12.21,9.48,13.46,17.22.27,1.65,3.11,1.29,3-.4-.6-6-.09-12.84,4.31-17.37,3.91-4,9.81-5.26,15.3-5.41,7.82-.2,15.64,1.54,23.08,3.8a161.18,161.18,0,0,1,26,10.71c16.87,8.58,33.31,19.4,46.42,33.17,7.24,7.59,18.47,21.25,11.72,31.89-3.59,5.66-10.91,8.27-17.13,9.85-12.39,3.13-25.53,3.24-38.22,2.84-4.33-.13-8.65-.37-13-.67v3a48.65,48.65,0,0,1,35.18,16,55.11,55.11,0,0,1,13.66,32.74c.73,10.94-1.9,22.6-9.5,30.83-8.94,9.66-22.43,11.87-35,10.24-23-3-44.31-16-62.81-29.15-3.34-2.37-6.62-4.82-9.87-7.31a1.5,1.5,0,0,0-2.2.9,56.07,56.07,0,0,1-38.64,45.1c-27.06,8.6-56.3-1.27-79.49-15.6-20.53-12.68-38.19-29.6-53.79-47.88a1.52,1.52,0,0,0-2.36.3c-11.61,15.48-28.38,26.56-45.67,34.76-20.1,9.55-41.92,15.51-63.9,18.75a233.09,233.09,0,0,1-68.16.39c-20-3-40.15-9-57.06-20.48-15.51-10.49-27.18-25.71-31.72-44q-.88-3.63-1.44-7.32l-.39,1.45c14.73-11.86,32.27-19,48.2-29,6.17-3.84,12.35-8.28,16.52-14.35a25,25,0,0,0,3.9-18.72c-2-11.75-9.91-22.15-17.3-31.1-1.23-1.49-3.34.64-2.12,2.12Z" transform="translate(-710.21 -335.76)"/><path class="cls-1" d="M888.61,575.81a30.29,30.29,0,0,0-13,21.82c-.11,1,1,1.63,1.9,1.45,17.62-3.88,35.44-8,53.41-9.92a57.33,57.33,0,0,1,11.34-.36,8.31,8.31,0,0,1,1.45.24,10.72,10.72,0,0,1,1.37.39c.37.13-.2-.13.25.1l.52.28c.55.32.06,0,.51.42s0-.14.32.41c.07.12.13.25.2.38s-.1-.34,0,.09c.08.28.15.55.22.83s.05.3.08.44,0-.36,0,.11a22.54,22.54,0,0,0,.6,4.17c1.37,4.63,6.16,6.56,10.47,7.57A75,75,0,0,0,973,605.87c8.12.29,16.25,0,24.36-.51q4-.24,8-.54l-1.06-2.56c-1.07,1-1.54,2.64-.37,3.82s2.9,1.29,4.34,1.46c5.88.68,12,0,17.87-.64a329.84,329.84,0,0,0,58-11.66,180.62,180.62,0,0,0,30.63-11.63h-1.51c4.26,2.13,9.23,3,13.87,3.75a209.26,209.26,0,0,0,22.48,2.43c17.63,1,35.71.66,53.06-2.92,8.13-1.68,16.46-4.15,23.45-8.77,1.61-1.06.1-3.66-1.51-2.59-6.24,4.13-13.55,6.42-20.8,8A159.09,159.09,0,0,1,1177,587a223.39,223.39,0,0,1-50-2.67,82.4,82.4,0,0,1-8.07-1.79c-1-.29-2-.6-2.93-1-.38-.15-.43-.2-.87-.37a2.58,2.58,0,0,0-2.59.29,170.65,170.65,0,0,1-24.83,9.62A335.4,335.4,0,0,1,1033.57,603a161.16,161.16,0,0,1-19.86,1.76,37.49,37.49,0,0,1-5.85-.27c-.33-.06-.67-.12-1-.21-.16,0-.94-.3-.51-.15-.1,0-.19-.11-.29-.16s.05,0,0,0,.12.13.15.51c0,0,0,.18-.05.18s0-.06.25-.3a1.52,1.52,0,0,0-1.06-2.56c-9.14.68-18.32,1.2-27.49,1.15a99.25,99.25,0,0,1-16.43-1.15,21.74,21.74,0,0,1-8.15-2.71c-.21-.13-.41-.27-.61-.42.22.16-.13-.1-.3-.27s-.93-1-.67-.67a9.56,9.56,0,0,1-.61-1c-.06-.11-.26-.57-.16-.34s-.09-.23-.12-.34c-.09-.32-.19-.64-.26-1l-.09-.49c-.09-.53,0,.12,0-.15-.07-.63-.12-1.27-.19-1.9a7.52,7.52,0,0,0-1.44-4.17,7.8,7.8,0,0,0-4.64-2.37,38.57,38.57,0,0,0-10.07-.2c-16.1,1.23-32.13,4.9-47.89,8.26-3.16.67-6.32,1.36-9.47,2l1.9,1.45a27,27,0,0,1,11.47-19.23c1.58-1.09.08-3.69-1.52-2.59Z" transform="translate(-710.21 -335.76)"/><path class="cls-1" d="M1141,558.67h1.33a11.37,11.37,0,0,0,5.78-1.3,13.48,13.48,0,0,0,7.93-7.92,11.29,11.29,0,0,0,1.29-5.78l-.53-4a15.05,15.05,0,0,0-3.86-6.62l-3-2.35a15,15,0,0,0-7.57-2H1141a15.41,15.41,0,0,0-15,15l.54,4a14.88,14.88,0,0,0,3.85,6.62l3,2.35a14.91,14.91,0,0,0,7.57,2Z" transform="translate(-710.21 -335.76)"/><path class="cls-1" d="M1242.33,653.33a15.47,15.47,0,0,0,10.61-4.39,15.23,15.23,0,0,0,4.39-10.61c-.17-3.88-1.44-7.9-4.39-10.6a15,15,0,0,0-21.21,0,15.28,15.28,0,0,0-4.4,10.6c.18,3.88,1.45,7.91,4.4,10.61a15.59,15.59,0,0,0,10.6,4.39Z" transform="translate(-710.21 -335.76)"/><path class="cls-1" d="M1153,661.33a15.47,15.47,0,0,0,10.61-4.39,15.23,15.23,0,0,0,4.39-10.61c-.17-3.88-1.45-7.9-4.39-10.6a15,15,0,0,0-21.22,0,15.23,15.23,0,0,0-4.39,10.6c.17,3.88,1.45,7.91,4.39,10.61a15.63,15.63,0,0,0,10.61,4.39Z" transform="translate(-710.21 -335.76)"/><path class="cls-1" d="M901,664a15.47,15.47,0,0,0,10.61-4.39A15.25,15.25,0,0,0,916,649c-.17-3.88-1.45-7.9-4.39-10.61A15.63,15.63,0,0,0,901,634a15.47,15.47,0,0,0-10.61,4.39A15.25,15.25,0,0,0,886,649c.17,3.88,1.45,7.9,4.39,10.61A15.63,15.63,0,0,0,901,664Z" transform="translate(-710.21 -335.76)"/><path class="cls-1" d="M815.67,649.33a15.47,15.47,0,0,0,10.6-4.39,15.29,15.29,0,0,0,4.4-10.61c-.18-3.88-1.45-7.9-4.4-10.6a15,15,0,0,0-21.21,0,15.23,15.23,0,0,0-4.39,10.6c.17,3.88,1.44,7.91,4.39,10.61a15.59,15.59,0,0,0,10.61,4.39Z" transform="translate(-710.21 -335.76)"/><path class="cls-1" d="M862.33,589.33a15.47,15.47,0,0,0,10.61-4.39,15.23,15.23,0,0,0,4.39-10.61c-.17-3.88-1.44-7.9-4.39-10.6a15,15,0,0,0-21.21,0,15.28,15.28,0,0,0-4.4,10.6c.18,3.88,1.45,7.91,4.4,10.61a15.59,15.59,0,0,0,10.6,4.39Z" transform="translate(-710.21 -335.76)"/><path class="cls-1" d="M942.33,621.33a15.47,15.47,0,0,0,10.61-4.39,15.23,15.23,0,0,0,4.39-10.61c-.17-3.88-1.44-7.9-4.39-10.6a15,15,0,0,0-21.21,0,15.28,15.28,0,0,0-4.4,10.6c.18,3.88,1.45,7.91,4.4,10.61a15.59,15.59,0,0,0,10.6,4.39Z" transform="translate(-710.21 -335.76)"/><path class="cls-1" d="M1055.67,584a15.47,15.47,0,0,0,10.6-4.39,15.31,15.31,0,0,0,4.4-10.61c-.18-3.88-1.45-7.9-4.4-10.61a15,15,0,0,0-21.21,0,15.25,15.25,0,0,0-4.39,10.61c.17,3.88,1.44,7.9,4.39,10.61a15.59,15.59,0,0,0,10.61,4.39Z" transform="translate(-710.21 -335.76)"/><path class="cls-1" d="M1093,625.33a15.47,15.47,0,0,0,10.61-4.39,15.23,15.23,0,0,0,4.39-10.61c-.17-3.88-1.45-7.9-4.39-10.6a15,15,0,0,0-21.22,0,15.23,15.23,0,0,0-4.39,10.6c.17,3.88,1.45,7.91,4.39,10.61a15.63,15.63,0,0,0,10.61,4.39Z" transform="translate(-710.21 -335.76)"/><path class="cls-1" d="M1221,570.67a15.48,15.48,0,0,0,10.61-4.4,15.23,15.23,0,0,0,4.39-10.6c-.17-3.88-1.45-7.91-4.39-10.61a15.63,15.63,0,0,0-10.61-4.39,15.47,15.47,0,0,0-10.61,4.39,15.23,15.23,0,0,0-4.39,10.61c.17,3.88,1.45,7.9,4.39,10.6a15.59,15.59,0,0,0,10.61,4.4Z" transform="translate(-710.21 -335.76)"/><path class="cls-1" d="M784.61,418c1.27-1.94,2.62-3.83,4-5.67l-2.34,3a101.86,101.86,0,0,1,18.29-18.12l-3,2.35a143.55,143.55,0,0,1,31.71-18.16L829.68,383A214.81,214.81,0,0,1,873.85,370q6.67-1.25,13.41-2.14l-4,.53a314.17,314.17,0,0,1,65.53-1.68q9.36.72,18.68,2l-4-.54a294.45,294.45,0,0,1,57,13.33q7.41,2.56,14.65,5.61l-3.58-1.52a191,191,0,0,1,32.19,17.15c2.74,1.84,5.43,3.77,8,5.79l-3-2.34a118.29,118.29,0,0,1,21.33,21l-2.34-3a90.19,90.19,0,0,1,11.62,19.76l-1.51-3.58a80.39,80.39,0,0,1,5.49,20.14l-.53-4c.11.87.22,1.74.31,2.62l2-7.57a97.88,97.88,0,0,1-9.62,15.09l2.34-3a123.36,123.36,0,0,1-22,21.71l3-2.35a178,178,0,0,1-31.52,19.22q-5,2.4-10.1,4.56l3.59-1.51a282.76,282.76,0,0,1-57.54,17q-8.67,1.63-17.44,2.81l4-.53a341,341,0,0,1-69.38,2.24q-9.49-.69-18.92-1.94l4,.54a250,250,0,0,1-47.93-11.06q-6.23-2.13-12.28-4.69l3.58,1.52a155,155,0,0,1-26.07-13.93q-3.33-2.25-6.51-4.69l3,2.34a103.47,103.47,0,0,1-18.7-18.47l2.35,3A85.89,85.89,0,0,1,772,460.47l1.51,3.58a84.78,84.78,0,0,1-5.76-21.28l.54,4a100.22,100.22,0,0,1,.15-26.24l-.54,4q.36-2.67.84-5.33c.73-4.05.63-7.89-1.51-11.56a15.27,15.27,0,0,0-9-6.89c-3.84-.87-8.15-.69-11.55,1.51-3.12,2-6.22,5.18-6.9,9-2.78,15.53-3.15,31,.24,46.5a94.11,94.11,0,0,0,15.89,35.18,126.68,126.68,0,0,0,31.15,29.73c11.88,8.11,25.08,14.19,38.55,19.15a236.21,236.21,0,0,0,41.77,10.94,334.42,334.42,0,0,0,49.33,4.79,345.47,345.47,0,0,0,47.15-2.23,353.58,353.58,0,0,0,49.3-9,283.78,283.78,0,0,0,45-16.09,182.49,182.49,0,0,0,35.13-20.67,158.56,158.56,0,0,0,17.12-14.68A131.82,131.82,0,0,0,1124.28,478q2.54-3.6,4.74-7.43c.73-1.29,1.45-2.59,2.11-3.91a16,16,0,0,0,1.85-9.32c-.26-2.11-.53-4.21-.86-6.3a80.71,80.71,0,0,0-5.23-18.56,101.19,101.19,0,0,0-10.77-20.2,125.84,125.84,0,0,0-15.2-17.95,165.49,165.49,0,0,0-38.08-27.11,253.28,253.28,0,0,0-47.72-18.94A344.17,344.17,0,0,0,910,336.05a303.76,303.76,0,0,0-53.15,6.88,214.49,214.49,0,0,0-47,16.35,136.44,136.44,0,0,0-37.06,26.06,111.49,111.49,0,0,0-14.1,17.51c-2.07,3.16-2.49,8-1.51,11.56A15,15,0,0,0,784.61,418Z" transform="translate(-710.21 -335.76)"/><path class="cls-1" d="M803.94,551.54l-.08.56.54-4a46.43,46.43,0,0,1-1.81,8c-.49,1.51-2.42,5.63,0,.35-.55,1.18-1.08,2.35-1.69,3.5a61.45,61.45,0,0,1-4,6.29,5,5,0,0,0-.61.82c-.09.29,2.38-3,1.56-2l-1.13,1.39c-.88,1.06-1.79,2.08-2.73,3.08a106.94,106.94,0,0,1-11.15,10.12l-1.43,1.13c-2.22,1.76,2.87-2.19,1.19-.92-1,.78-2.07,1.57-3.11,2.34-2,1.52-4.12,3-6.18,4.53-8.06,5.88-16.78,11.74-23.14,19.54-4,4.93-7.12,9.73-9.09,15.84s-1.79,12.27-.71,18.42c.76,4.34,2.35,8.83,5.34,12.08,2,2.2,5.15,3.46,7.8,4.77q2.76,1.38,5.56,2.68c8.15,3.82,16.48,7.31,24.92,10.44a306.44,306.44,0,0,0,47.31,13.27,354.15,354.15,0,0,0,100.92,5.38c33-3,65.63-10.16,96.27-22.85,4.49-1.86,9-3.77,13.38-5.8H1026.8a257.47,257.47,0,0,0,37,21A311.56,311.56,0,0,0,1110,699.17c15,4.33,30.78,7.39,46.47,7.83,14.14.39,28.61-1.74,41.26-8.34,14.33-7.47,24.15-21.69,27.27-37.42l-22,9c17.6,10.06,37,17.91,57,21.43,16.74,3,34.35,3.8,50.89-.84,12.95-3.64,26.47-11.41,32.31-24.13a41.17,41.17,0,0,0,3.1-24.47c-1.1-7-4.27-13.88-8.08-19.82A111.65,111.65,0,0,0,1317,598.44a251,251,0,0,0-36.26-25.65l-11.55,27.41c11.89,1.89,24,3.45,36,3.16,8.29-.19,17.09-1,24.92-3.91s14.57-7.18,19.55-14.18a29.19,29.19,0,0,0,5-18.18c-.93-14-8.92-26.09-18.7-35.65-11.55-11.28-25.6-19.41-40.59-25.17a104.42,104.42,0,0,0-12.22-3.87c-2.11-.52-4.23-1-6.36-1.36a39,39,0,0,0-6.47-1c-1.83,0-3.68.28-5.51.38a233.34,233.34,0,0,1-43.89-1.72l4,.54c-29-3.94-57-12.84-85.2-20.1-9.29-2.38-18.61-4.62-28-6.64-7.65-1.64-16.58,2.28-18.45,10.48-1.72,7.55,2.27,16.69,10.48,18.45,43.12,9.29,85,24.93,129.25,28.59a232.38,232.38,0,0,0,37.31,0l-4-.53a102.46,102.46,0,0,1,19.92,5.2l2.27.88,1.13.46c2.08.83-3.58-1.55-2-.86s3.08,1.37,4.59,2.1q4.44,2.16,8.66,4.72,4,2.4,7.69,5.15c.29.21.58.44.88.65,1.54,1.14-2.26-1.8-2-1.54.5.49,1.14.89,1.69,1.34q1.79,1.47,3.51,3a75.41,75.41,0,0,1,5.89,6c.78.89,1.53,1.82,2.28,2.74-3.58-4.37-1-1.36.08.31a53.67,53.67,0,0,1,3.66,6.64c-2.78-5.81-.71-1.7-.2.09a26.12,26.12,0,0,1,.69,3.3l-.54-4a19.23,19.23,0,0,1,0,5l.53-4a21.3,21.3,0,0,1-.7,2.94c-.77,2.55,2-3.95.83-2-.26.45-.47.91-.74,1.34-.85,1.37-2.48,2.55,1.28-1.54-.34.37-.64.76-1,1.12s-.82.77-1.22,1.17c-1.93,1.87,3.7-2.59,1.4-1.07a31.55,31.55,0,0,1-3.17,1.89c-1.38.69-4.18,1.52,1.35-.5-.7.26-1.39.55-2.1.79a55.09,55.09,0,0,1-10.22,2.28l4-.54c-11.65,1.5-23.53.59-35.13-.94l4,.53c-2.19-.29-4.38-.62-6.57-1-3.93-.63-8-.77-11.56,1.51a15.55,15.55,0,0,0-6.14,7.17,15,15,0,0,0,6.14,18.73c6.93,4.11,13.73,8.45,20.27,13.15q2.07,1.49,4.09,3a10.16,10.16,0,0,1,1,.75c.16.14-2.68-2.11-1.43-1.1.72.57,1.46,1.14,2.18,1.73q3.63,2.93,7.08,6.07a108.24,108.24,0,0,1,11.3,11.86c.18.22.35.45.54.67,1,1.15-1.72-2.3-1.48-1.92s.66.89,1,1.33c.68.93,1.33,1.87,2,2.84a53.51,53.51,0,0,1,3.07,5.29c1,1.87,1.79,4.51.07-.12.34.93.7,1.84,1,2.78a33.4,33.4,0,0,1,1.24,5.5l-.54-4a26.2,26.2,0,0,1,0,6.68l.54-4a28.49,28.49,0,0,1-1.22,4.81c-.67,2.08,1-2.33,1-2.37a5.6,5.6,0,0,0-.57,1.18c-.36.68-.74,1.35-1.16,2-.25.37-.52.72-.76,1.09-1.07,1.63,2.79-3.36,1.52-2-.61.67-1.19,1.37-1.84,2s-1.2,1.11-1.82,1.65c-1.71,1.51,1.84-1.4,1.91-1.45-.41.26-.78.59-1.18.86a37.37,37.37,0,0,1-4.6,2.73c-.78.4-4.33,2-1.14.6s-.51.16-1.34.45a67.91,67.91,0,0,1-13,3l4-.53a106.35,106.35,0,0,1-27.84-.28l4,.54a148.81,148.81,0,0,1-28.24-6.79q-3.64-1.24-7.23-2.67l-2-.8c-2.26-.91,2.93,1.26,1.26.54-1.22-.53-2.44-1.06-3.66-1.61-5.27-2.4-10.41-5.06-15.43-7.93-7.88-4.51-20.11-.73-22,9a52.1,52.1,0,0,1-2,7.25c-.22.59-.47,1.17-.68,1.77,1.76-5.12,1.18-2.72.58-1.46q-.67,1.42-1.47,2.79c-.58,1-1.23,2-1.89,3s-2.13,2.36,1.31-1.65c-.37.43-.71.89-1.09,1.32a42.2,42.2,0,0,1-4.55,4.42c-1.63,1.42,3.73-2.73,1.36-1-.35.24-.69.49-1,.73-.94.64-1.91,1.24-2.91,1.79s-1.78,1-2.69,1.39c-1.22.58-3.69,1.36,1.58-.62l-1.66.65a62.92,62.92,0,0,1-13.6,3.29l4-.54a112.36,112.36,0,0,1-29.25-.53l4,.54a211,211,0,0,1-35.83-8.44q-9-2.89-17.73-6.39-2.19-.87-4.36-1.77c-2.67-1.1,3.17,1.36,1,.42l-2.29-1q-4.39-1.92-8.72-4a268.67,268.67,0,0,1-30.61-16.87c-4.22-2.72-7.82-5.55-13.17-5.79-4-.18-7.91,2.23-11.54,3.83-.84.38-1.69.74-2.54,1.11s-2.6,1.06,1.39-.58l-1.47.61q-11.31,4.66-23,8.37a325.26,325.26,0,0,1-54.84,12.21l4-.54a346,346,0,0,1-91.15,0l4,.53a321.08,321.08,0,0,1-50.65-11q-12.3-3.75-24.25-8.57c-1-.41-2-.86-3.06-1.26,4.36,1.69,1.45.61.55.22q-3-1.31-6-2.69-6-2.76-11.81-5.8l6.89,9a31.16,31.16,0,0,1-1.58-6.09l.54,4a24.18,24.18,0,0,1-.06-5.95l-.53,4a23.15,23.15,0,0,1,.86-3.86c.48-1.5,1.95-3.78-.64,1.29.32-.62.59-1.26.93-1.88.65-1.21,1.44-2.31,2.2-3.45,1-1.51-1.88,2.33-1.62,2.07a10.2,10.2,0,0,0,.76-1c.54-.64,1.09-1.26,1.65-1.87a70.08,70.08,0,0,1,6.8-6.32c1.25-1.05,6-4.65,1-.89,1.44-1.08,2.86-2.17,4.31-3.23,13.63-10.06,27.3-19.62,37.39-33.46,6.47-8.87,9.68-19.06,11.06-29.83.45-3.53-2-8.21-4.4-10.61a15.23,15.23,0,0,0-10.6-4.39c-3.88.18-7.91,1.45-10.61,4.39-2.88,3.14-3.86,6.43-4.39,10.61Z" transform="translate(-710.21 -335.76)"/><path class="cls-1" d="M839.67,690.57l51.94.89,51.93.89,29.47.5a15.4,15.4,0,0,0,10.6-4.39,15.22,15.22,0,0,0,4.4-10.61c-.18-3.88-1.45-7.9-4.4-10.61a15.77,15.77,0,0,0-10.6-4.39L921.07,662l-51.94-.89-29.46-.5A15.43,15.43,0,0,0,829.06,665a15.25,15.25,0,0,0-4.39,10.61c.17,3.88,1.45,7.9,4.39,10.61a15.8,15.8,0,0,0,10.61,4.39Z" transform="translate(-710.21 -335.76)"/><path class="cls-1" d="M762.71,398.69a8.15,8.15,0,0,1-1.13.6l3.58-1.51a8.34,8.34,0,0,1-2,.54l4-.53a11.49,11.49,0,0,1-2.87,0l4,.54a20.29,20.29,0,0,1-5-1.43l3.58,1.51a45.63,45.63,0,0,1-9.92-6.06l3,2.35a88.92,88.92,0,0,1-12.7-12.14q-1.6-1.86-3.1-3.79l2.34,3a52.49,52.49,0,0,1-7-11.3l1.51,3.58a16.82,16.82,0,0,1-1.26-4.22l.53,4a8,8,0,0,1,0-1.95l-.54,4a4.83,4.83,0,0,1,.3-1.13l-1.51,3.59a3.48,3.48,0,0,1,.43-.75l-2.34,3a3.54,3.54,0,0,1,.58-.58l-3,2.35a4.3,4.3,0,0,1,.86-.5l-3.58,1.52a6,6,0,0,1,1.44-.38l-4,.54a11.49,11.49,0,0,1,2.93.06l-4-.54a37.51,37.51,0,0,1,9.3,2.86l-3.59-1.52a163.48,163.48,0,0,1,22.32,12.08q4.26,2.64,8.44,5.41a11.11,11.11,0,0,0,5.58,1.78,11.28,11.28,0,0,0,6-.27,15.22,15.22,0,0,0,9-6.89c1.84-3.48,2.76-7.7,1.52-11.56a16.46,16.46,0,0,0-6.9-9,259.23,259.23,0,0,0-23.2-13.91c-3.8-2-7.68-3.67-11.64-5.3a45.27,45.27,0,0,0-6.32-2.16c-6.29-1.57-13-1.76-18.83,1.55a18.7,18.7,0,0,0-9.18,17.31,29,29,0,0,0,1.41,7.46,58.56,58.56,0,0,0,3.37,7.6,85.69,85.69,0,0,0,8.5,12.15,97.1,97.1,0,0,0,21,19.51,49.5,49.5,0,0,0,12.7,6.29c4.78,1.56,10.73,2,15.55.34a23.54,23.54,0,0,0,5.09-2.26,15.8,15.8,0,0,0,6.89-9,11.38,11.38,0,0,0,.27-6,11.21,11.21,0,0,0-1.78-5.58c-2.07-3.2-5.14-6-9-6.89s-8.15-.69-11.55,1.51Z" transform="translate(-710.21 -335.76)"/><path class="cls-1" d="M1105.25,405.79c2.42-1.19,4.87-2.32,7.35-3.37l-3.58,1.51a141.18,141.18,0,0,1,35.85-9.79l-4,.54a140.16,140.16,0,0,1,30-.76l-10.61-25.61a119.09,119.09,0,0,1-17.45,16.59l3-2.34a120.16,120.16,0,0,1-26.4,15.42l3.58-1.51q-4.9,2.05-10,3.67a15.78,15.78,0,0,0-9,6.9,15.3,15.3,0,0,0-1.51,11.56c1.17,3.63,3.42,7.13,6.89,9s7.69,2.75,11.56,1.51a136.23,136.23,0,0,0,50.19-29,120.1,120.1,0,0,0,10.25-10.55,17.53,17.53,0,0,0,3.85-6.62l.54-4a11.26,11.26,0,0,0-1.29-5.78,14.87,14.87,0,0,0-7.93-7.93,11.29,11.29,0,0,0-5.78-1.29,140,140,0,0,0-29.58.7,157.51,157.51,0,0,0-32.54,7.37,173,173,0,0,0-18.68,7.9c-3.23,1.59-6,5.58-6.89,9a15.35,15.35,0,0,0,1.51,11.56c2.07,3.2,5.14,6,9,6.89l4,.54a14.88,14.88,0,0,0,7.57-2Z" transform="translate(-710.21 -335.76)"/><path class="cls-1" d="M753.34,380.77l21.24,12.17a15.58,15.58,0,0,0,11.56,1.51,15.29,15.29,0,0,0,9-6.89c1.84-3.48,2.76-7.7,1.51-11.56a15.54,15.54,0,0,0-6.89-9l-21.23-12.18a15.64,15.64,0,0,0-11.56-1.51,15.35,15.35,0,0,0-9,6.89c-1.84,3.48-2.76,7.7-1.51,11.56a15.6,15.6,0,0,0,6.89,9Z" transform="translate(-710.21 -335.76)"/></svg>